<?xml version="1.0" encoding="utf-8"?>
<!-- Generator: Adobe Illustrator 27.5.0, SVG Export Plug-In . SVG Version: 6.00 Build 0)  -->
<svg version="1.1" xmlns="http://www.w3.org/2000/svg" xmlns:xlink="http://www.w3.org/1999/xlink" x="0px" y="0px"
	 viewBox="0 0 500 500" style="enable-background:new 0 0 500 500;" xml:space="preserve">
<g id="BACKGROUND">
	<rect style="fill:#F3F4FD;" width="500" height="500"/>
</g>
<g id="OBJECTS">
	<g>
		<g>
			<polygon style="fill:#41007C;" points="49.63,473.41 53.028,473.41 119.071,214.742 115.673,214.742 			"/>
			<polygon style="fill:#905DF3;" points="258.036,279.343 90.655,279.343 67.819,42.285 235.2,42.285 			"/>
			<polygon style="fill:#C2C6F5;" points="261.726,279.343 94.345,279.343 71.509,42.285 238.89,42.285 			"/>
			<polygon style="fill:#41007C;" points="244.664,42.598 61.088,42.598 60.666,38.216 244.242,38.216 			"/>
			<polygon style="fill:#41007C;" points="267.769,282.447 84.193,282.447 83.771,278.065 267.347,278.065 			"/>
			<polygon style="fill:#41007C;" points="114.442,473.41 110.875,473.41 121.993,279.05 125.559,279.05 			"/>
			<polygon style="fill:#41007C;" points="274.868,473.41 278.435,473.41 229.871,279.05 226.305,279.05 			"/>
			<polygon style="fill:#41007C;" points="197.775,473.41 194.377,473.41 175.77,280.256 179.169,280.256 			"/>
			<g>
				<text transform="matrix(0.9954 0 0.0959 0.9954 101.089 92.8746)"><tspan x="0" y="0" style="fill:#905DF3; font-family:'JosefinSans-Bold'; font-size:24.1894px;">BUSINESS</tspan><tspan x="5.225" y="23.983" style="fill:#905DF3; font-family:'JosefinSans-Light'; font-size:24.1894px;">TRAINING</tspan></text>
				<path style="fill:none;stroke:#905DF3;stroke-width:0.5968;stroke-miterlimit:10;" d="M224.12,127.748H105.698
					c-8.195,0-15.478-6.643-16.268-14.838L86.1,78.344c-0.789-8.195,5.214-14.838,13.409-14.838h118.422
					c8.195,0,15.478,6.643,16.268,14.838l3.33,34.565C238.318,121.104,232.315,127.748,224.12,127.748z"/>
				<path style="fill:#905DF3;" d="M163.125,172.864h-46.587c-7.448,0-14.067-6.038-14.785-13.486l0,0
					c-0.718-7.448,4.739-13.486,12.187-13.486h46.587c7.448,0,14.068,6.038,14.785,13.486l0,0
					C176.029,166.826,170.573,172.864,163.125,172.864z"/>
				<path style="fill:#905DF3;" d="M187.782,255.74h-46.587c-7.448,0-14.067-6.038-14.785-13.486v0
					c-0.717-7.448,4.739-13.486,12.187-13.486h46.587c7.448,0,14.067,6.038,14.785,13.486v0
					C200.686,249.702,195.23,255.74,187.782,255.74z"/>
				<path style="fill:none;stroke:#905DF3;stroke-width:0.5968;stroke-miterlimit:10;" d="M230.023,210.624h-46.587
					c-7.448,0-14.068-6.038-14.785-13.486l0,0c-0.718-7.448,4.739-13.486,12.187-13.486h46.587c7.448,0,14.067,6.038,14.785,13.486
					l0,0C242.927,204.586,237.471,210.624,230.023,210.624z"/>
				
					<line style="fill:none;stroke:#905DF3;stroke-width:0.5968;stroke-miterlimit:10;" x1="135.461" y1="127.748" x2="138.508" y2="159.378"/>
				<path style="fill:none;stroke:#905DF3;stroke-width:0.5968;stroke-miterlimit:10;" d="M178.687,128.238l0.496,5.149
					c0.509,5.281,5.202,9.563,10.484,9.563h0c5.281,0,9.975,4.281,10.484,9.563l3,31.14"/>
				<path style="fill:none;stroke:#905DF3;stroke-width:0.5968;stroke-miterlimit:10;" d="M168.651,197.138h-46.587
					c-7.854,0-13.608,6.367-12.851,14.221l1.771,18.39c0.757,7.854,7.737,14.221,15.591,14.221l0,0"/>
				<path style="fill:none;stroke:#905DF3;stroke-width:0.5968;stroke-miterlimit:10;" d="M199.969,242.255h11.527
					c7.175,0,12.432-5.817,11.741-12.992l-1.748-18.148"/>
				<g>
					<path style="fill:#C2C6F5;" d="M163.257,153.092h-49.64c-0.557,0-1.052-0.452-1.106-1.009l0,0
						c-0.054-0.557,0.354-1.009,0.912-1.009h49.64c0.557,0,1.052,0.452,1.106,1.009l0,0
						C164.222,152.641,163.814,153.092,163.257,153.092z"/>
					<path style="fill:#C2C6F5;" d="M163.723,157.935h-49.64c-0.557,0-1.052-0.452-1.106-1.009l0,0
						c-0.054-0.557,0.354-1.009,0.912-1.009h49.64c0.557,0,1.052,0.452,1.106,1.009l0,0
						C164.689,157.484,164.281,157.935,163.723,157.935z"/>
					<path style="fill:#C2C6F5;" d="M164.19,162.778h-49.64c-0.557,0-1.052-0.452-1.106-1.009l0,0
						c-0.054-0.557,0.354-1.009,0.912-1.009h49.64c0.557,0,1.053,0.452,1.106,1.009l0,0
						C165.155,162.326,164.747,162.778,164.19,162.778z"/>
					<path style="fill:#C2C6F5;" d="M164.656,167.621h-49.64c-0.557,0-1.052-0.452-1.106-1.009l0,0
						c-0.054-0.557,0.355-1.009,0.912-1.009h49.64c0.557,0,1.052,0.452,1.106,1.009l0,0
						C165.622,167.169,165.214,167.621,164.656,167.621z"/>
				</g>
				<g>
					<path style="fill:#C2C6F5;" d="M187.808,236.166h-49.64c-0.557,0-1.053-0.452-1.106-1.009l0,0
						c-0.054-0.557,0.355-1.009,0.912-1.009h49.64c0.557,0,1.052,0.452,1.106,1.009l0,0
						C188.773,235.714,188.365,236.166,187.808,236.166z"/>
					<path style="fill:#C2C6F5;" d="M188.274,241.009h-49.64c-0.557,0-1.052-0.452-1.106-1.009l0,0
						c-0.054-0.557,0.355-1.009,0.912-1.009h49.64c0.557,0,1.052,0.452,1.106,1.009l0,0
						C189.24,240.557,188.832,241.009,188.274,241.009z"/>
					<path style="fill:#C2C6F5;" d="M188.741,245.852h-49.64c-0.557,0-1.052-0.452-1.106-1.009l0,0
						c-0.054-0.557,0.354-1.009,0.912-1.009h49.64c0.557,0,1.052,0.452,1.106,1.009l0,0
						C189.706,245.4,189.298,245.852,188.741,245.852z"/>
					<path style="fill:#C2C6F5;" d="M189.208,250.695h-49.64c-0.557,0-1.052-0.452-1.106-1.009l0,0
						c-0.054-0.557,0.355-1.009,0.912-1.009h49.64c0.557,0,1.052,0.452,1.106,1.009l0,0
						C190.173,250.243,189.765,250.695,189.208,250.695z"/>
				</g>
				<g>
					<path style="fill:#905DF3;" d="M229.84,191.485H180.2c-0.557,0-1.052-0.452-1.106-1.009l0,0
						c-0.054-0.557,0.355-1.009,0.912-1.009h49.64c0.557,0,1.052,0.452,1.106,1.009l0,0
						C230.805,191.033,230.397,191.485,229.84,191.485z"/>
					<path style="fill:#905DF3;" d="M230.306,196.328h-49.64c-0.557,0-1.052-0.452-1.106-1.009l0,0
						c-0.054-0.557,0.355-1.009,0.912-1.009h49.64c0.557,0,1.052,0.452,1.106,1.009l0,0
						C231.272,195.876,230.864,196.328,230.306,196.328z"/>
					<path style="fill:#905DF3;" d="M230.773,201.171h-49.64c-0.557,0-1.052-0.452-1.106-1.009l0,0
						c-0.054-0.557,0.355-1.009,0.912-1.009h49.64c0.557,0,1.053,0.452,1.106,1.009l0,0
						C231.738,200.719,231.33,201.171,230.773,201.171z"/>
					<path style="fill:#905DF3;" d="M231.239,206.014H181.6c-0.557,0-1.053-0.452-1.106-1.009l0,0
						c-0.054-0.557,0.355-1.009,0.912-1.009h49.64c0.557,0,1.052,0.452,1.106,1.009l0,0
						C232.205,205.562,231.797,206.014,231.239,206.014z"/>
				</g>
			</g>
		</g>
		<g>
			<path style="fill:#41007C;" d="M222.628,291.915H127.9l10.695-59.87c0.623-3.485,3.952-6.309,7.436-6.309h82.109
				c3.484,0,5.805,2.825,5.182,6.309L222.628,291.915z"/>
			<polygon style="fill:#C2C6F5;" points="217.483,286.317 135.045,286.317 144.867,231.333 227.306,231.333 			"/>
			<polygon style="fill:#FFFFFF;" points="165.913,286.317 146.783,286.317 176.605,231.333 195.735,231.333 			"/>
			<polygon style="fill:#FFFFFF;" points="181.601,286.317 172.471,286.317 202.293,231.333 211.423,231.333 			"/>
			<path style="fill:#41007C;" d="M222.628,291.915H108.374l0,0c0,3.409,2.764,6.173,6.174,6.173h100.998
				C219.117,298.088,222.14,295.453,222.628,291.915L222.628,291.915z"/>
			<g>
				<path style="fill:#C2C6F5;" d="M222.628,291.915c-7.894,0.206-15.788,0.303-23.682,0.383l-23.682,0.117l-23.682-0.115
					l-11.841-0.139l-11.841-0.245l11.841-0.245l11.841-0.139l23.682-0.115l23.682,0.117
					C206.84,291.612,214.734,291.709,222.628,291.915z"/>
			</g>
		</g>
		<g>
			<g>
				<g>
					<path style="fill:#FF675D;" d="M251.783,143.728c0,0-2.277-12.134-4.108-13.856c-1.831-1.722-6.809-4.764-6.809-4.764
						s-11.897-27.674-14.882-27.312s6.641,23.227,6.641,23.227s-14.775,5.035-14.133,12.047
						c1.156,12.632,14.912,15.674,14.912,15.674l5.155,7.414L251.783,143.728z"/>
				</g>
				<g>
					<g>
						<path style="fill:#41007C;" d="M240.866,125.108c-1.432-0.564-2.832-1.19-4.247-1.787c-1.407-0.613-2.811-1.233-4.202-1.877
							l0.646-0.251c-0.282,1.038-0.176,2.305,0.128,3.422c0.322,1.139,0.869,2.212,1.549,3.205c0.685,1.004,1.482,1.923,2.371,2.727
							c0.874,0.785,1.927,1.511,2.93,1.867l0.644,0.229l-0.247,0.608c-0.47,1.156-0.836,2.459-1.081,3.74
							c-0.253,1.291-0.412,2.604-0.456,3.926c-0.068,1.324,0.006,2.652,0.132,3.979c0.147,1.325,0.397,2.645,0.807,3.93
							c-0.624-1.204-1.002-2.522-1.311-3.847c-0.301-1.331-0.454-2.695-0.505-4.065c-0.029-1.371,0.034-2.75,0.248-4.112
							c0.223-1.368,0.511-2.694,1.037-4.041l0.397,0.836c-1.384-0.475-2.43-1.234-3.446-2.1c-0.977-0.888-1.823-1.903-2.546-2.986
							c-0.742-1.085-1.295-2.318-1.618-3.616c-0.299-1.313-0.375-2.659,0.089-4.04l0.17-0.504l0.477,0.253
							c1.355,0.718,2.699,1.459,4.039,2.207C238.204,123.575,239.55,124.311,240.866,125.108z"/>
					</g>
					<g>
						<path style="fill:#41007C;" d="M233.168,148.577c0.642-0.165,1.137-0.405,1.599-0.691c0.452-0.296,0.872-0.624,1.239-1.007
							c0.389-0.374,0.738-0.81,1.121-1.256c0.377-0.451,0.764-0.93,1.264-1.368c-0.018,0.663-0.162,1.281-0.407,1.877
							c-0.237,0.599-0.603,1.161-1.074,1.649c-0.493,0.477-1.092,0.857-1.766,1.025C234.483,148.98,233.732,148.944,233.168,148.577
							z"/>
					</g>
					<g>
						<path style="fill:#41007C;" d="M237.503,145.862c-2.769-3.046-4.87-6.674-6.425-10.493c-1.521-3.833-2.513-7.907-2.617-12.023
							c1.106,3.956,2.282,7.807,3.801,11.547C233.749,138.646,235.565,142.242,237.503,145.862z"/>
					</g>
					<g>
						<path style="fill:#41007C;" d="M235.594,148.07c-3.847-1.951-7.109-5.038-9.571-8.616c-2.438-3.595-4.125-7.758-4.538-12.052
							c1.403,4.061,3.213,7.869,5.592,11.332C229.433,142.213,232.321,145.287,235.594,148.07z"/>
					</g>
				</g>
			</g>
			<g>
				<path style="fill:#905DF3;" d="M310.656,450.573v22.136h-59.163c-3.385,0-5.761-3.336-4.654-6.535l0,0
					c0.643-1.856,2.011-3.372,3.792-4.2l32.354-15.042L310.656,450.573z"/>
				<line style="fill:none;stroke:#C2C6F5;stroke-miterlimit:10;" x1="247.004" y1="469.795" x2="310.656" y2="469.795"/>
				<path style="fill:none;stroke:#C2C6F5;stroke-miterlimit:10;" d="M274.592,457.413c-2.525-2.753-6.185-4.432-9.918-4.55"/>
				<path style="fill:none;stroke:#C2C6F5;stroke-miterlimit:10;" d="M270.823,459.449c-2.449-2.38-5.543-4.089-8.862-4.896"/>
				<path style="fill:none;stroke:#C2C6F5;stroke-miterlimit:10;" d="M266.149,460.168c-2.666-1.923-5.697-3.338-8.882-4.147"/>
			</g>
			<g>
				<path style="fill:#905DF3;" d="M362.772,450.573v22.136h59.163c3.385,0,5.761-3.336,4.654-6.535l0,0
					c-0.643-1.856-2.011-3.372-3.793-4.2l-32.354-15.042L362.772,450.573z"/>
				<line style="fill:none;stroke:#C2C6F5;stroke-miterlimit:10;" x1="426.424" y1="469.795" x2="362.772" y2="469.795"/>
				<path style="fill:none;stroke:#C2C6F5;stroke-miterlimit:10;" d="M398.836,457.413c2.525-2.753,6.185-4.432,9.919-4.55"/>
				<path style="fill:none;stroke:#C2C6F5;stroke-miterlimit:10;" d="M402.605,459.449c2.449-2.38,5.544-4.089,8.862-4.896"/>
				<path style="fill:none;stroke:#C2C6F5;stroke-miterlimit:10;" d="M407.279,460.168c2.666-1.923,5.697-3.338,8.883-4.147"/>
			</g>
			<path style="fill:#41007C;" d="M274.805,448.446l31.984-238.002l60.18,0.817l32.34,237.185c0,0-4.041,6.775-19.825,7.93
				c-14.406,1.054-21.116-5.937-21.116-5.937l-23.156-163.77l-20.06,163.216c0,0-8.968,5.616-21.711,4.508
				C280.698,453.285,274.805,448.446,274.805,448.446z"/>
			<path style="fill:#FF675D;" d="M310.235,73.484c-1.182,3.803-1.335,7.838-1.478,11.818c-0.133,3.701-0.265,7.42,0.174,11.097
				c0.373,3.122,1.155,6.185,2.148,9.168c0.838,2.519,1.843,5.018,3.406,7.164c2.501,3.433,6.42,5.8,10.623,6.415
				c6.145,0.9,12.401-1.91,16.894-6.197c4.492-4.288,7.464-9.911,9.957-15.599c1.746-3.984,3.311-8.109,3.806-12.43
				c0.914-7.983-2.11-16.323-7.929-21.863c-4.734-4.507-11.223-7.076-17.746-7.177c-5.955-0.091-10.606,3.931-14.423,8.238
				C313.256,66.839,311.318,70,310.235,73.484z"/>
			<path style="fill:#41007C;" d="M350.592,106.157c3.895,0.494,7.995-1.127,10.497-4.153c2.503-3.025,3.446-7.487,2.231-11.22
				c2.605-0.744,4.701-2.741,6.175-5.014c1.464-2.258,2.426-4.912,2.314-7.6c-0.113-2.688-1.445-5.235-3.712-6.684
				c2.07-1.661,3.323-4.227,3.622-6.865c0.299-2.638-0.305-5.332-1.463-7.721c-1.038-2.141-2.574-4.115-4.666-5.248
				c-2.092-1.133-4.544-1.614-6.564-0.358c0.263-4.606-2.674-9.222-6.959-10.934c-4.284-1.712-9.486-0.55-12.469,2.969
				c-2.491-3.613-7.094-5.645-11.442-5.05c-4.348,0.594-7.839,4.14-9.269,8.288c-3.585-1.564-8.055-0.528-10.81,2.248
				c-2.755,2.776-3.673,6.71-2.784,10.519c-3.197,1.152-5.655,4.05-6.461,7.352c-0.805,3.301-0.007,6.917,1.953,9.693
				c1.96,2.776,4.963,5.015,8.269,5.803c-0.162-2.335,0.373-4.629,1.109-6.851c3.19,0.458,6.559-0.516,9.013-2.606
				c2.453-2.09,4.331-5.432,4.385-8.655c0.894,3.393,4.352,5.754,7.857,5.911c3.505,0.157,7.076-1.924,9.452-4.506
				c0.013,2.471,0.801,4.974,2.408,6.851c1.607,1.878,4.034,2.924,6.5,2.775c-0.68,2.977-0.625,6.119,0.16,9.07
				C350.671,86.926,351.753,100.936,350.592,106.157z"/>
			<g>
				<path style="fill:#FF675D;" d="M361.124,89.576c-0.241,2.857-1.761,5.582-4.065,7.288c-0.721,0.534-1.537,0.979-2.427,1.095
					c-2.007,0.261-3.924-1.285-4.649-3.174c-0.726-1.889-0.491-4.012,0.009-5.973c0.646-2.535,2.01-5.235,4.519-5.977
					C358.556,81.64,361.423,86.038,361.124,89.576z"/>
				<path style="fill:#FF8775;" d="M352.121,95.637c0.866-0.318,1.638-0.884,2.203-1.614c0.113-0.147,0.222-0.308,0.242-0.493
					c0.037-0.352-0.252-0.645-0.517-0.88c-0.536-0.475-1.072-0.95-1.609-1.426c-0.107-0.095-0.218-0.196-0.265-0.331
					c-0.051-0.149-0.015-0.312,0.021-0.465c0.464-1.951,1.024-4.057,2.611-5.282c0.428-0.331,0.933-0.586,1.473-0.628
					c0.801-0.062,1.58,0.361,2.13,0.948c0.55,0.586,0.907,1.323,1.241,2.054c0,0,0.661,4.081-2.047,6.718
					C354.897,96.875,352.121,95.637,352.121,95.637z"/>
				<g>
					<path style="fill:#41007C;" d="M359.651,87.52c-0.424-0.713-0.831-1.451-1.433-1.972c-0.569-0.529-1.347-0.861-2.044-0.71
						c-0.694,0.154-1.331,0.659-1.807,1.255c-0.485,0.596-0.842,1.306-1.109,2.06c-0.285,0.748-0.485,1.54-0.688,2.339
						c-0.058,0.217-0.06,0.281-0.036,0.31c0.034,0.067,0.234,0.236,0.376,0.371c0.306,0.28,0.605,0.566,0.902,0.856
						c0.282,0.302,0.626,0.525,0.888,0.99c0.129,0.225,0.146,0.577,0.013,0.81c-0.124,0.234-0.271,0.38-0.419,0.539
						c-0.613,0.605-1.361,1.066-2.172,1.269c0.743-0.372,1.402-0.88,1.877-1.526c0.118-0.157,0.251-0.325,0.305-0.467
						c0.054-0.143,0.034-0.25-0.047-0.383c-0.163-0.257-0.54-0.503-0.852-0.771c-0.324-0.26-0.645-0.522-0.959-0.792
						c-0.158-0.149-0.306-0.22-0.517-0.49c-0.102-0.136-0.159-0.354-0.15-0.507c0.003-0.159,0.034-0.282,0.055-0.383
						c0.184-0.812,0.383-1.632,0.675-2.44c0.301-0.8,0.697-1.596,1.282-2.27c0.586-0.649,1.33-1.256,2.292-1.373
						c0.973-0.106,1.842,0.401,2.413,1.042C359.059,85.95,359.388,86.734,359.651,87.52z"/>
				</g>
			</g>
			<path style="fill:#FF675D;" d="M351.8,95.967c0.217,6.02,0.433,12.04,0.65,18.061c0.101,2.808,0.209,5.656,1.055,8.335
				c0.846,2.679,2.538,5.215,5.062,6.449c-4.412,6.355-10.493,11.499-17.883,13.787c-1.909,0.591-4.013,1.01-5.871,0.274
				c-1.509-0.597-2.636-1.873-3.617-3.165c-2.004-2.641-3.658-5.547-4.905-8.618c1.718-0.373,2.397-2.043,2.918-3.722
				c0.521-1.679,0.435-3.478,0.345-5.234c-0.123-2.388-0.246-4.776-0.368-7.165"/>
			<path style="fill:#41007C;" d="M329.315,119.231c5.138-0.418,10.065-3.314,13.348-7.837c-2.043,5.691-7.473,10.039-13.053,10.981
				L329.315,119.231z"/>
			<g>
				<path style="fill:#41007C;" d="M325.736,82.526c-2.65,4.883-3.974,10.313-3.587,15.765l-0.308-0.353
					c0.949,0.271,1.922,0.453,2.914,0.518c0.993,0.085,2,0.01,3.013-0.101c-0.962,0.343-1.979,0.536-3.014,0.617
					c-1.037,0.063-2.087-0.031-3.107-0.243l-0.267-0.056l-0.041-0.297C320.571,92.789,322.128,86.81,325.736,82.526z"/>
			</g>
			<g>
				<path style="fill:#41007C;" d="M310.19,79.51c0.866-0.659,1.836-1.184,2.848-1.636c1.019-0.436,2.095-0.757,3.201-0.954
					c1.098-0.199,2.251-0.468,3.375-0.214c1.113,0.239,2.205,0.676,3.074,1.522l-0.059,0.191c-1.173,0.217-2.189,0.24-3.203,0.278
					c-1.002,0.054-1.996-0.205-3.024-0.186c-1.019,0.021-2.047,0.125-3.07,0.318c-1.03,0.177-2.04,0.485-3.046,0.856L310.19,79.51z"
					/>
			</g>
			<g>
				<path style="fill:#41007C;" d="M342.327,80.895c-1.04-0.487-2.091-0.91-3.176-1.203c-1.076-0.309-2.166-0.528-3.256-0.661
					c-1.099-0.132-2.194,0.017-3.266-0.142c-1.085-0.145-2.172-0.273-3.389-0.611l-0.036-0.197c1.036-0.753,2.241-1.072,3.447-1.192
					c1.218-0.134,2.411,0.256,3.558,0.573c1.155,0.316,2.27,0.754,3.317,1.303c1.039,0.565,2.031,1.2,2.91,1.963L342.327,80.895z"/>
			</g>
			<path style="fill:#41007C;" d="M319.186,84.973c0,1.215-0.722,2.2-1.612,2.2s-1.612-0.985-1.612-2.2
				c0-1.215,0.722-2.201,1.612-2.201S319.186,83.757,319.186,84.973z"/>
			<path style="fill:#41007C;" d="M335.601,84.973c0,1.215-0.722,2.2-1.612,2.2s-1.612-0.985-1.612-2.2
				c0-1.215,0.722-2.201,1.612-2.201S335.601,83.757,335.601,84.973z"/>
			<g>
				<path style="fill:#41007C;" d="M327.674,104.995c1.339-0.912,2.978-1.399,4.589-1.31c0.429-0.728,0.624-1.265,0.624-1.265
					s-4.231,1.751-7.441,1.751c-3.21,0-6.785-1.751-6.785-1.751s1.931,4.766,6.538,5.209
					C325.851,106.6,326.668,105.68,327.674,104.995z"/>
				<path style="fill:#ED1847;" d="M327.674,104.995c-1.005,0.685-1.823,1.605-2.474,2.635c0.224,0.021,0.448,0.044,0.684,0.044
					c3.478,0,5.464-2.434,6.379-3.988C330.652,103.596,329.013,104.083,327.674,104.995z"/>
			</g>
			<g style="opacity:0.25;">
				<g>
					<path style="fill:#C2C6F5;" d="M334.458,60.145c1.51-1.535,3.96-2.184,6.159-1.546c2.197,0.639,3.996,2.486,4.566,4.724
						l-0.736-0.276c0.697-0.475,1.562-0.682,2.375-0.666c0.822,0.009,1.592,0.243,2.309,0.552c1.463,0.664,2.514,2.053,2.749,3.538
						c-0.554-1.393-1.7-2.452-3.007-2.89c-0.668-0.231-1.373-0.348-2.043-0.328c-0.675,0.019-1.306,0.233-1.844,0.598l-0.551,0.374
						l-0.186-0.65c-0.538-1.884-2.029-3.492-3.894-4.163C338.491,58.743,336.253,58.98,334.458,60.145z"/>
				</g>
				<g>
					<path style="fill:#C2C6F5;" d="M323.893,48.751c0.914-1.541,2.797-2.541,4.72-2.41c1.92,0.133,3.727,1.346,4.566,3.103
						l-0.798-0.103c0.458-0.53,1.082-0.923,1.734-1.145c0.656-0.231,1.331-0.275,1.988-0.256c1.346,0.066,2.613,0.733,3.377,1.738
						c-0.997-0.769-2.22-1.122-3.371-1.038c-0.589,0.036-1.169,0.165-1.685,0.374c-0.519,0.212-0.954,0.549-1.313,0.964
						l-0.465,0.537l-0.334-0.64c-0.736-1.411-2.186-2.456-3.786-2.686C326.928,46.958,325.163,47.508,323.893,48.751z"/>
				</g>
				<g>
					<path style="fill:#C2C6F5;" d="M322.649,57.603c-0.714-0.128-1.422-0.153-2.1-0.021c-0.675,0.115-1.319,0.347-1.881,0.691
						c-1.129,0.68-1.961,1.808-2.295,3.055l-0.135,0.502l-0.486-0.152c-1.006-0.315-2.161-0.262-3.08,0.269
						c-0.943,0.562-1.709,1.484-2.23,2.567c0.18-1.187,0.783-2.376,1.812-3.174c1.068-0.824,2.526-0.976,3.786-0.602l-0.621,0.35
						c0.37-1.539,1.457-2.864,2.862-3.538c0.705-0.333,1.473-0.496,2.229-0.487C321.264,57.089,322.011,57.249,322.649,57.603z"/>
				</g>
				<g>
					<path style="fill:#C2C6F5;" d="M356.46,56.425c1.123-0.148,2.352,0.303,3.195,1.183c0.85,0.88,1.292,2.142,1.173,3.383
						l-0.492-0.538c1.134,0.015,2.182,0.536,2.921,1.293c0.742,0.749,1.23,1.781,1.171,2.794c-0.336-0.942-0.944-1.684-1.668-2.229
						c-0.728-0.534-1.584-0.875-2.425-0.868l-0.535,0.005l0.043-0.543c0.076-0.964-0.208-1.971-0.798-2.771
						C358.447,57.332,357.544,56.718,356.46,56.425z"/>
				</g>
				<g>
					<path style="fill:#C2C6F5;" d="M357.445,75.86c1.097-0.39,2.442-0.136,3.427,0.649c0.983,0.791,1.574,2.062,1.514,3.348
						l-0.713-0.452c0.957-0.474,2.058-0.492,3.006-0.181c0.946,0.305,1.805,0.974,2.154,1.863c-0.664-0.667-1.492-1.022-2.328-1.152
						c-0.836-0.125-1.69-0.019-2.386,0.344l-0.72,0.375l0.007-0.827c0.008-0.98-0.377-1.983-1.083-2.704
						C359.616,76.397,358.592,75.933,357.445,75.86z"/>
				</g>
			</g>
			<g>
				<path style="fill:#905DF3;" d="M421.703,216.434c1.906-5.446-22.329-64.537-33.222-72.979
					c-10.892-8.442-34.039-17.7-34.039-17.7l-19.63,17.117l-8.522-11.784c0,0-22.497,7.465-27.127,10.188
					c-4.629,2.723-24.78,37.306-24.78,37.306l-22.602-34.855c0,0-3.812,1.089-9.803,4.357s-9.258,7.625-9.258,7.625
					s26.686,54.462,34.583,58.002c7.897,3.54,35.945-29.137,35.945-29.137l3.54,25.869c0,0,10.62,9.803,28.048,10.348
					s32.132-9.531,32.132-9.531l7.897-39.485l17.972,38.668l-24.508,11.982l8.442,19.334
					C376.772,241.759,419.797,221.881,421.703,216.434z"/>
				<g>
					<path style="fill:#41007C;" d="M324.228,132.046l0.107,7.638l0.023,7.637l-0.485-0.33c3.567-1.566,7.17-3.043,10.761-4.551
						l0.213-0.089l0.203,0.119c1.89,1.104,3.796,2.182,5.673,3.308l5.642,3.361l-0.619,0.16c2.181-3.685,4.407-7.344,6.649-10.993
						c2.225-3.66,4.498-7.29,6.797-10.906c-2.054,3.76-4.132,7.506-6.26,11.223c-2.11,3.727-4.236,7.445-6.407,11.136l-0.228,0.387
						l-0.391-0.227l-5.682-3.293c-1.897-1.092-3.766-2.233-5.65-3.347l0.416,0.029c-3.613,1.454-7.213,2.938-10.85,4.333
						l-0.502,0.193l0.017-0.523l0.244-7.633L324.228,132.046z"/>
				</g>
				<line style="fill:none;stroke:#41007C;stroke-miterlimit:10;" x1="334.813" y1="142.873" x2="334.837" y2="220.791"/>
				<path style="fill:#41007C;" d="M342.596,169.997c0,0.672-0.545,1.217-1.217,1.217c-0.672,0-1.217-0.545-1.217-1.217
					c0-0.672,0.545-1.217,1.217-1.217C342.051,168.78,342.596,169.325,342.596,169.997z"/>
				<circle style="fill:#41007C;" cx="341.71" cy="191.574" r="1.217"/>
				<g>
					<path style="fill:#41007C;" d="M373.536,177.844c0.263-2.092,0.652-4.159,1.077-6.218c0.413-2.062,0.922-4.101,1.449-6.135
						c0.55-2.028,1.121-4.051,1.785-6.046l1.012-2.987c0.378-0.983,0.726-1.975,1.14-2.945c-0.197,1.037-0.452,2.055-0.67,3.084
						l-0.743,3.059c-0.488,2.04-1.032,4.064-1.559,6.092c-0.55,2.022-1.082,4.048-1.672,6.062
						C374.778,173.826,374.201,175.844,373.536,177.844z"/>
				</g>
				<g>
					<path style="fill:#41007C;" d="M299.776,154.847l2.426,19.479l2.513,19.468c-0.405-1.59-0.737-3.194-1.094-4.794l-0.924-4.829
						c-0.592-3.224-1.062-6.469-1.486-9.719c-0.4-3.253-0.754-6.513-0.986-9.783C299.983,161.4,299.802,158.127,299.776,154.847z"/>
				</g>
				<g>
					<path style="fill:#41007C;" d="M272.928,176.277c1.966,2.134,3.651,4.476,5.233,6.883c1.556,2.423,3.01,4.915,4.157,7.581
						c-1.824-2.256-3.421-4.637-4.996-7.037C275.774,181.288,274.249,178.859,272.928,176.277z"/>
				</g>
				<path style="fill:none;stroke:#41007C;stroke-miterlimit:10;" d="M236.541,163.401c5.729-5.511,12.813-9.399,20.456-11.586"/>
				<path style="fill:none;stroke:#41007C;stroke-miterlimit:10;" d="M375.345,219.018c2.981,2.19,5.146,5.387,6.406,8.864
					c1.261,3.477,1.653,7.229,1.498,10.925"/>
			</g>
			<g>
				<path style="fill:#C2C6F5;" d="M337.664,311.265c-0.611-4.079-1.117-8.169-1.604-12.26c-0.263-2.044-0.461-4.094-0.686-6.142
					l-0.658-6.144l0.085,0.233l-3.554-5.235c-1.175-1.752-2.385-3.479-3.531-5.251l-3.472-5.292
					c-1.126-1.785-2.282-3.55-3.383-5.353c1.29,1.672,2.526,3.382,3.792,5.072l3.703,5.133c1.246,1.703,2.427,3.45,3.644,5.173
					l3.621,5.189l0.073,0.105l0.012,0.127l0.569,6.153c0.185,2.052,0.395,4.101,0.541,6.156
					C337.146,303.037,337.458,307.146,337.664,311.265z"/>
			</g>
			<g>
				<path style="fill:#C2C6F5;" d="M305.367,216.696c4.26,3.653,9.172,6.477,14.403,8.368c5.231,1.887,10.772,2.921,16.326,2.919
					c5.556,0.078,11.106-0.857,16.417-2.524c2.66-0.828,5.258-1.863,7.773-3.077c2.531-1.186,4.959-2.588,7.316-4.111
					c-2.228,1.709-4.62,3.204-7.095,4.548c-2.491,1.314-5.086,2.442-7.753,3.37c-5.339,1.845-10.998,2.794-16.665,2.793
					c-5.664-0.081-11.325-1.126-16.59-3.202c-2.628-1.043-5.162-2.318-7.545-3.827C309.589,220.418,307.353,218.682,305.367,216.696
					z"/>
			</g>
			<path style="fill:none;stroke:#C2C6F5;stroke-miterlimit:10;" d="M327.678,227.713c-0.783,6.684-1.248,13.406-1.394,20.135
				c-0.042,1.947-0.051,3.941,0.591,5.78c0.641,1.839,2.064,3.522,3.965,3.944c1.173-9.597,2.334-19.068,3.507-28.664"/>
			<g>
				<path style="fill:#C2C6F5;" d="M275.512,443.265c3.086,1.656,6.324,2.976,9.669,3.891c3.346,0.903,6.78,1.461,10.235,1.603
					c3.455,0.164,6.924-0.087,10.337-0.69l2.547-0.533l2.512-0.694l2.481-0.82c0.805-0.332,1.617-0.653,2.436-0.969
					c-0.771,0.412-1.549,0.818-2.334,1.213l-2.425,1.039l-2.505,0.84l-2.558,0.677c-3.443,0.795-7.001,1.081-10.535,0.935
					c-3.533-0.169-7.052-0.77-10.41-1.867l-2.488-0.901l-2.421-1.059l-2.323-1.249C276.982,444.217,276.243,443.744,275.512,443.265
					z"/>
			</g>
			<g>
				<path style="fill:#C2C6F5;" d="M357.794,445.875c2.987,2.311,6.568,3.58,10.193,4.364c3.642,0.767,7.361,1.262,11.065,1.125
					c3.7-0.06,7.394-0.757,10.792-2.228c3.396-1.453,6.496-3.678,8.851-6.616c-1.01,1.588-2.294,3.008-3.737,4.242
					c-1.453,1.225-3.086,2.234-4.799,3.068c-3.445,1.666-7.286,2.385-11.08,2.523c-3.81,0.056-7.601-0.437-11.268-1.377
					c-1.832-0.484-3.638-1.095-5.354-1.908C360.762,448.221,359.146,447.188,357.794,445.875z"/>
			</g>
			<path style="fill:#FF675D;" d="M376.193,240.222c0,0-1.001,0.535-3.415,0.626c-2.414,0.091-5.2-0.527-6.915-2.227
				c-1.737,1.797-1.851,4.581-2.954,6.824c-0.127,0.258-0.298,0.533-0.578,0.599c-0.455,0.107-0.805-0.394-0.983-0.826
				c-1.9-4.598-0.999-10.381,2.401-14.014c-1.662,1.773-3.351,3.586-4.376,5.789c-0.717,1.541-1.109,3.272-2.196,4.579
				c-0.109,0.131-0.24,0.266-0.41,0.286c-0.178,0.022-0.346-0.091-0.471-0.219c-0.652-0.665-0.592-1.733-0.438-2.652
				c0.827-4.949,3.04-9.451,6.443-13.137c-4.408,2.387-7.937,6.358-9.787,11.017c-0.188,0.474-0.374,0.975-0.757,1.312
				c-0.383,0.337-1.036,0.43-1.378,0.051c-0.054-0.059-0.097-0.126-0.132-0.197c-0.605-1.218-0.581-2.657-0.25-3.975
				c1.518-6.052,5.564-11.677,11.089-14.685c-5.631,1.812-10.504,5.903-13.189,11.188c-0.329,0.648-0.776,1.292-1.447,1.572
				c-0.042,0.018-0.087,0.028-0.135,0.028c-0.29-0.002-0.411-0.369-0.439-0.658c-0.37-3.831,1.1-7.73,3.643-10.618
				c2.543-2.888,5.886-5.644,9.735-5.644c0,0,3.23,1.563,6.243,4.272c1.272,1.144,2.825,2.606,4.196,3.915
				c2.214,2.114,3.761,4.827,4.444,7.811L376.193,240.222z"/>
		</g>
		<rect x="16.711" y="298.137" style="fill:#905DF3;" width="474.645" height="10.179"/>
		<g>
			<g>
				<path style="fill:#FF675D;" d="M173.853,300.174l14.503-0.056c0,0-4.414-8.277-13.795-10.3
					c-9.381-2.023-21.336,4.414-21.336,4.414L173.853,300.174z"/>
				<g>
					<path style="fill:#FF675D;" d="M134.282,457.582v-8.352h15.985c0,0,21.025,8.177,34.85,15.087
						C167.974,466.619,150.249,464.22,134.282,457.582z"/>
					<path style="fill:#41007C;" d="M185.117,464.318c6.718,3.358,11.745,6.418,11.814,8.092c0.213,5.118-62.649,0.094-62.649,0.094
						v-14.922C150.249,464.22,167.974,466.619,185.117,464.318z"/>
				</g>
				<g>
					<path style="fill:#FF675D;" d="M152.879,457.582v-8.352h15.985c0,0,21.025,8.177,34.85,15.087
						C186.571,466.619,168.846,464.22,152.879,457.582z"/>
					<path style="fill:#41007C;" d="M203.714,464.318c6.718,3.358,11.744,6.418,11.814,8.092c0.213,5.118-62.649,0.094-62.649,0.094
						v-14.922C168.846,464.22,186.571,466.619,203.714,464.318z"/>
				</g>
				
					<line style="fill:none;stroke:#41007C;stroke-width:1.0814;stroke-miterlimit:10;" x1="153.621" y1="473.728" x2="152.397" y2="444.119"/>
				<path style="fill:#41007C;" d="M145.303,322.123c1.158,0,30.869,2.315,37.043,17.75c6.174,15.435-5.016,112.288-5.016,112.288
					h-20.837l-25.467-1.158l-8.875-94.538H70.82c-13.846,0-25.071-11.225-25.071-25.071v-14.288L145.303,322.123z"/>
				<g>
					<path style="fill:#FF675D;" d="M100.908,217.02c0.435,4.368,0.519,8.565,0.818,12.945c-7.27,3.022-15.604,3.403-23.119,1.058
						c0.55-4.668,1.099-9.336,1.649-14.003c4.22-0.772,8.215-1.132,12.503-1.259C95.659,215.674,98.267,215.819,100.908,217.02z"/>
					<path style="fill:#FF675D;" d="M111.792,169.68c2.428,7.995,4.056,16.755,4.687,25.086c0.397,5.246,1.342,12.144-0.906,16.901
						c-2.802,5.93-9.539,6.381-16.046,7.205c-6.506,0.824-12.925,0.827-18.307-2.921c-5.382-3.748-9.542-9.054-12.673-14.817
						c-4.255-7.833-6.737-16.899-5.398-25.712c1.339-8.813,6.959-17.226,15.263-20.469c3.197-1.249,6.652-1.713,10.082-1.831
						c5.374-0.186,11.023,0.609,15.402,3.953C108.506,160.596,110.109,164.139,111.792,169.68z"/>
					<path style="fill:#FF675D;" d="M114.366,184.164c0.926,4.421,4.371,7.886,8.063,10.488c-1.857,1.977-3.966,4.098-5.823,6.076
						c-0.961-3.786-1.43-7.777-1.907-11.654"/>
					<g>
						<path style="fill:#41007C;" d="M116.689,206.809c-0.966-0.483-1.709-1.08-2.486-1.668c-0.756-0.576-1.542-1.202-2.213-1.918
							c-1.354-1.423-2.394-3.113-3.035-4.924c0.836,1.729,2.035,3.255,3.469,4.464c0.715,0.614,1.501,1.096,2.314,1.62
							c0.795,0.503,1.622,1.032,2.408,1.336L116.689,206.809z"/>
					</g>
					<path style="fill:#41007C;" d="M111.595,186.023c0.114,1.309-0.572,2.438-1.531,2.522c-0.959,0.083-1.829-0.911-1.942-2.22
						c-0.114-1.309,0.571-2.438,1.531-2.522C110.611,183.719,111.481,184.713,111.595,186.023z"/>
					<polygon style="fill:#41007C;" points="101.024,218.552 91.828,219.065 101.131,221.972 					"/>
					<g>
						<path style="fill:#41007C;" d="M102.951,185.051c0.279-1.042,0.776-2.03,1.384-2.957c0.624-0.917,1.396-1.746,2.283-2.451
							c0.874-0.7,1.804-1.481,2.959-1.7c1.13-0.229,2.343-0.212,3.433,0.348l0.008,0.216c-1.013,0.635-1.889,1.045-2.753,1.486
							c-0.84,0.45-1.811,0.613-2.683,1.086c-0.86,0.469-1.679,1.044-2.429,1.72c-0.766,0.666-1.422,1.463-2.006,2.34
							L102.951,185.051z"/>
					</g>
					<path style="fill:#41007C;" d="M116.628,161.005c-0.84-3.296-3.469-5.92-6.498-7.467c-3.029-1.547-6.446-2.148-9.823-2.556
						c-4.393-0.53-8.822-0.763-13.247-0.699c-5.331,0.078-10.475,0.261-15.449,2.182c-4.974,1.921-9.5,5.306-12.12,9.95
						c-1.349,2.391-2.167,5.049-2.714,7.739c-1.709,8.402-0.846,17.08-0.935,25.654c-0.089,8.574-1.317,17.594-6.496,24.427
						c2.957,2.125,6.806,3.795,10.989,4.926c1.963-3.571,3.506-7.373,4.525-11.319c-0.015,4.048-0.554,8.093-1.593,12.006
						c0.695,0.141,1.392,0.268,2.095,0.378c1.164-2.569,2.225-5.187,2.75-7.95c0.506,2.745,0.645,5.555,0.428,8.338
						c6.227,0.555,12.442-0.114,17.096-2.342c-0.799-7.685-1.785-15.125-2.842-22.779c4.096-6.416,5.438-14.647,3.43-21.99
						c1.627,0.534,3.404,0.347,5.075-0.033c6.305-1.435,11.807-5.568,14.942-11.224c-0.132,3.098-1.042,6.076-3.062,8.429
						c5.729,0.008,11.25-3.945,13.086-9.372C116.951,165.284,117.155,163.071,116.628,161.005z"/>
					<g>
						<path style="fill:#FF675D;" d="M73.875,192.918c0.527,3.055,2.419,5.849,5.061,7.472c0.827,0.508,1.748,0.911,2.717,0.953
							c2.187,0.093,4.107-1.751,4.712-3.855c0.605-2.103,0.153-4.369-0.569-6.435c-0.933-2.671-2.656-5.452-5.428-6.017
							C75.899,184.127,73.222,189.134,73.875,192.918z"/>
						<path style="fill:#FF8775;" d="M84.143,198.606c-0.962-0.262-1.848-0.8-2.525-1.533c-0.136-0.147-0.268-0.311-0.306-0.508
							c-0.073-0.376,0.211-0.719,0.475-0.997c0.533-0.562,1.067-1.124,1.6-1.686c0.106-0.112,0.217-0.232,0.254-0.382
							c0.041-0.165-0.013-0.338-0.066-0.499c-0.682-2.058-1.483-4.275-3.308-5.447c-0.493-0.316-1.06-0.545-1.646-0.539
							c-0.869,0.009-1.669,0.537-2.206,1.22c-0.537,0.683-0.853,1.511-1.145,2.329c0,0-0.331,4.459,2.834,7.046
							C81.268,200.199,84.143,198.606,84.143,198.606z"/>
						<g>
							<path style="fill:#41007C;" d="M75.27,190.566c0.21-0.872,0.491-1.747,1.034-2.526c0.549-0.748,1.441-1.389,2.503-1.354
								c1.048,0.045,1.906,0.624,2.598,1.27c0.693,0.672,1.194,1.492,1.594,2.326c0.39,0.842,0.682,1.708,0.956,2.565
								c0.032,0.107,0.077,0.237,0.095,0.407c0.024,0.164-0.016,0.405-0.114,0.56c-0.202,0.311-0.355,0.401-0.511,0.576
								l-0.955,0.947c-0.311,0.318-0.687,0.625-0.84,0.911c-0.075,0.148-0.088,0.262-0.02,0.41c0.069,0.148,0.226,0.319,0.368,0.477
								c0.572,0.652,1.329,1.138,2.165,1.469c-0.893-0.143-1.742-0.569-2.459-1.164c-0.174-0.157-0.349-0.298-0.506-0.539
								c-0.167-0.238-0.185-0.623-0.067-0.88c0.238-0.532,0.593-0.798,0.87-1.148l0.895-1.004c0.14-0.159,0.34-0.36,0.37-0.435
								c0.023-0.034,0.015-0.102-0.068-0.331c-0.294-0.842-0.584-1.676-0.96-2.455c-0.358-0.787-0.809-1.518-1.388-2.115
								c-0.568-0.596-1.302-1.085-2.065-1.178c-0.76-0.086-1.565,0.332-2.135,0.951C76.029,188.925,75.66,189.758,75.27,190.566z"/>
						</g>
					</g>
					<g style="opacity:0.26;">
						<g>
							<path style="fill:#C2C6F5;" d="M71.353,153.142c2.002,1.556,4.353,2.57,6.79,3.119c2.432,0.583,4.946,0.769,7.446,0.722
								c5.01-0.082,10.039-0.898,15.181-0.676c2.555,0.159,5.202,0.625,7.494,2.005c2.3,1.343,3.951,3.832,4.169,6.491
								c0.138,1.319-0.053,2.678-0.54,3.896c-0.48,1.224-1.203,2.317-2.013,3.309c-1.663,1.911-3.532,3.785-5.915,4.727
								c2.264-1.159,3.997-3.067,5.497-5.054c0.742-0.998,1.392-2.067,1.79-3.219c0.406-1.148,0.525-2.37,0.355-3.561
								c-0.171-1.188-0.606-2.333-1.257-3.329c-0.651-0.997-1.564-1.803-2.593-2.417c-2.084-1.223-4.584-1.647-7.046-1.77
								c-4.982-0.31-10.018,0.517-15.124,0.426c-2.551-0.054-5.116-0.336-7.58-1.04C75.565,156.039,73.201,154.889,71.353,153.142z"
								/>
						</g>
						<g>
							<path style="fill:#C2C6F5;" d="M66.19,155.314c1.07,1.491,2.364,2.802,3.859,3.815c1.472,1.038,3.121,1.814,4.849,2.25
								c3.473,0.882,7.155,0.481,10.877,0.897c1.863,0.222,3.718,0.691,5.439,1.492c1.706,0.811,3.31,1.946,4.471,3.471
								c1.177,1.518,1.855,3.385,1.952,5.27c0.069,1.874-0.463,3.824-1.726,5.186c1.062-1.51,1.43-3.383,1.198-5.145
								c-0.195-1.767-0.922-3.466-2.068-4.785c-2.324-2.681-5.871-4.023-9.39-4.415c-3.548-0.436-7.332-0.05-10.977-1.173
								c-1.801-0.562-3.482-1.461-4.94-2.625C68.298,158.361,67.056,156.938,66.19,155.314z"/>
						</g>
						<g>
							<path style="fill:#C2C6F5;" d="M61.807,159.939c2.365,1.648,4.567,3.578,6.357,5.893c0.877,1.168,1.622,2.444,2.194,3.804
								c0.561,1.365,0.919,2.814,1.089,4.28c0.354,2.942-0.083,5.911-0.85,8.726c-0.775,2.824-1.896,5.516-3.019,8.172
								c-2.338,5.265-4.422,10.625-6.362,16.046c-0.978,2.707-1.896,5.437-2.764,8.183c-0.903,2.737-1.713,5.503-2.534,8.27
								c0.583-2.827,1.293-5.626,2.026-8.42c0.767-2.784,1.599-5.551,2.485-8.302c1.783-5.497,3.891-10.892,6.157-16.204
								c1.152-2.639,2.283-5.275,3.066-8.011c0.791-2.725,1.182-5.569,0.971-8.38c-0.115-1.403-0.407-2.79-0.898-4.112
								c-0.5-1.319-1.182-2.572-1.988-3.744C66.132,163.777,64.023,161.779,61.807,159.939z"/>
						</g>
						<g>
							<path style="fill:#C2C6F5;" d="M58.073,165.374c1.43,1.454,2.472,3.272,3.219,5.186c0.717,1.931,1.112,3.977,1.258,6.034
								c0.279,4.133-0.49,8.217-1.3,12.192c-0.898,3.973-1.909,7.922-3.162,11.796c-0.633,1.934-1.302,3.857-2.014,5.762
								c-0.747,1.893-1.496,3.783-2.347,5.63c0.622-1.935,1.271-3.857,1.846-5.802c0.609-1.933,1.185-3.875,1.719-5.828
								c1.081-3.901,2.094-7.82,2.903-11.784c0.895-3.942,1.624-7.924,1.528-11.926c-0.042-1.995-0.334-3.99-0.929-5.902
								C60.23,168.808,59.315,166.984,58.073,165.374z"/>
						</g>
						<g>
							<path style="fill:#C2C6F5;" d="M75.684,197.594c-0.38,4.871-0.691,9.699-0.703,14.543c-0.042,4.844,0.213,9.675,0.534,14.55
								c-1.168-4.749-1.629-9.662-1.615-14.556C73.946,207.236,74.464,202.33,75.684,197.594z"/>
						</g>
					</g>
				</g>
				<path style="fill:#C2C6F5;" d="M46.135,337.557c0-1.465-6.609-106.005,35.091-111.73c50.771-6.97,53.087,38.076,56.016,51.622
					c2.929,13.546,5.997,24.723,5.997,24.723s8.33-10.201,15.604-9.321c11.32,1.369,15.011,7.322,15.011,7.322
					s-18.672,24.505-24.896,29.996c-6.224,5.492-15.743-0.366-15.743-0.366v9.683c0,0-10.291,6.946-42.318,6.56
					C58.869,345.661,46.135,337.557,46.135,337.557z"/>
				<g>
					<path style="fill:#41007C;" d="M135.266,330.086c-2.48-0.091-4.731-1.536-6.435-3.294c-1.712-1.795-3.026-3.914-4.208-6.055
						c-2.356-4.284-4.435-8.72-6.306-13.239c-1.807-4.545-3.418-9.171-4.711-13.886c-1.303-4.711-2.317-9.5-3.006-14.33
						c0.586,2.369,1.116,4.745,1.784,7.087c0.613,2.354,1.287,4.692,2.02,7.009c1.451,4.638,3.041,9.232,4.914,13.714
						c1.775,4.522,3.852,8.917,6.037,13.258c1.08,2.164,2.285,4.274,3.864,6.086C130.755,328.257,132.82,329.745,135.266,330.086z"
						/>
				</g>
				<g>
					<path style="fill:#41007C;" d="M142.938,300.222c1.096,2.363,1.877,4.813,2.58,7.285c0.672,2.48,1.264,4.983,1.538,7.574
						c-1.099-2.362-1.879-4.813-2.58-7.285C143.806,305.314,143.214,302.812,142.938,300.222z"/>
				</g>
				<g>
					<path style="fill:#C2C6F5;" d="M120.382,356.221c1.5-0.126,3.001-0.183,4.501-0.275l4.496-0.187
						c2.994-0.144,5.984-0.255,8.96-0.496c2.978-0.215,5.941-0.557,8.886-1.027l2.203-0.392l2.189-0.477l2.183-0.527
						c0.717-0.213,1.44-0.414,2.169-0.607c-0.688,0.303-1.381,0.597-2.08,0.88l-2.13,0.765l-2.175,0.631l-2.2,0.544
						c-2.949,0.67-5.956,1.046-8.962,1.288c-3.009,0.216-6.022,0.3-9.03,0.246l-4.507-0.114
						C123.383,356.387,121.883,356.338,120.382,356.221z"/>
				</g>
				<g>
					<path style="fill:#C2C6F5;" d="M151.932,452.021l-0.497-12.495l-0.385-12.497l-0.594-24.998l-0.344-25.003l-0.083-12.503
						c0.012-4.168-0.014-8.336,0.031-12.505c0.201,4.164,0.331,8.33,0.499,12.495l0.385,12.497l0.592,24.998l0.342,25.003
						l0.084,12.503L151.932,452.021z"/>
				</g>
			</g>
			<g>
				<g>
					<path style="fill:#41007C;" d="M158.438,362.195H51.533c-5.966,0-10.803-4.837-10.803-10.803l0,0h128.512l0,0
						C169.241,357.358,164.405,362.195,158.438,362.195z"/>
					<path style="fill:#41007C;" d="M115.574,240.103H59.355c-10.287,0-18.626,8.339-18.626,18.626v92.673h93.47v-92.673
						C134.199,248.442,125.861,240.103,115.574,240.103z M57.815,263.089c0-5.966,4.837-10.803,10.803-10.803h37.694
						c5.966,0,10.803,4.837,10.803,10.803H57.815z"/>
				</g>
				<polygon style="fill:#41007C;" points="53.801,472.785 47.195,472.785 79.638,364.362 86.244,364.362 				"/>
				<polygon style="fill:#C2C6F5;" points="51.943,472.785 45.336,472.785 77.779,364.362 84.386,364.362 				"/>
				<polygon style="fill:#41007C;" points="91.052,472.785 84.445,472.785 95.26,364.362 101.866,364.362 				"/>
				<polygon style="fill:#C2C6F5;" points="89.193,472.785 82.587,472.785 93.401,364.362 100.008,364.362 				"/>
				<polygon style="fill:#41007C;" points="161.054,472.785 167.661,472.785 135.218,364.362 128.611,364.362 				"/>
				<polygon style="fill:#C2C6F5;" points="159.102,472.785 165.708,472.785 133.265,364.362 126.659,364.362 				"/>
				<polygon style="fill:#41007C;" points="123.804,472.785 130.41,472.785 119.596,364.362 112.989,364.362 				"/>
				<polygon style="fill:#C2C6F5;" points="121.851,472.785 128.458,472.785 117.643,364.362 111.037,364.362 				"/>
				<path style="fill:#41007C;" d="M72.852,355.384h63.621c3.054,0,5.53,2.476,5.53,5.53l0,0c0,3.054-2.476,5.53-5.53,5.53H72.852
					c-3.054,0-5.53-2.476-5.53-5.53l0,0C67.322,357.86,69.798,355.384,72.852,355.384z"/>
				<path style="fill:#905DF3;" d="M156.243,362.195H49.337c-5.966,0-10.803-4.837-10.803-10.803l0,0h128.512l0,0
					C167.046,357.358,162.209,362.195,156.243,362.195z"/>
				<path style="fill:#905DF3;" d="M113.378,240.103H57.159c-10.287,0-18.625,8.339-18.625,18.626v92.673h93.47v-92.673
					C132.004,248.442,123.665,240.103,113.378,240.103z M55.619,263.089c0-5.966,4.837-10.803,10.803-10.803h37.694
					c5.966,0,10.803,4.837,10.803,10.803H55.619z"/>
				<g>
					<path style="fill:#41007C;" d="M132.004,351.401c-3.895,0.122-7.789,0.174-11.684,0.264l-11.684,0.15
						c-7.789,0.089-15.578,0.081-23.368,0.126l-23.367-0.124l-11.684-0.151c-3.895-0.09-7.789-0.142-11.684-0.265
						c3.895-0.123,7.789-0.175,11.684-0.265l11.684-0.151l23.367-0.124c7.789,0.045,15.578,0.037,23.368,0.126l11.684,0.151
						C124.215,351.227,128.109,351.279,132.004,351.401z"/>
				</g>
			</g>
		</g>
		<g>
			<g>
				<g>
					<path style="fill:#41007C;" d="M392.277,445.087l0.809,27.571h-63.98c-3.661,0-6.23-3.608-5.033-7.068l0,0
						c0.695-2.007,2.175-3.647,4.101-4.542l34.988-16.267L392.277,445.087z"/>
					
						<line style="fill:none;stroke:#C2C6F5;stroke-width:1.0814;stroke-miterlimit:10;" x1="324.25" y1="469.506" x2="393.086" y2="469.506"/>
					<path style="fill:none;stroke:#C2C6F5;stroke-width:1.0814;stroke-miterlimit:10;" d="M354.085,456.116
						c-2.731-2.977-6.689-4.793-10.726-4.92"/>
					<path style="fill:none;stroke:#C2C6F5;stroke-width:1.0814;stroke-miterlimit:10;" d="M350.01,458.317
						c-2.649-2.574-5.995-4.422-9.584-5.294"/>
					<path style="fill:none;stroke:#C2C6F5;stroke-width:1.0814;stroke-miterlimit:10;" d="M344.954,459.095
						c-2.883-2.079-6.161-3.61-9.606-4.485"/>
				</g>
				<path style="fill:#FF8775;" d="M343.968,298.242l-14.503-0.056c0,0,4.414-8.277,13.795-10.3
					c9.381-2.023,21.336,4.414,21.336,4.414L343.968,298.242z"/>
				<path style="fill:#41007C;" d="M372.518,322.047c-1.158,0-30.869,2.315-37.043,17.75c-6.174,15.435-5.798,112.288-5.798,112.288
					h31.651l30.875-1.158l3.468-94.538h51.331c13.846,0,25.071-11.225,25.071-25.071V317.03L372.518,322.047z"/>
				<g>
					<path style="fill:#FF8775;" d="M416.913,216.944c-0.435,4.368-0.519,8.566-0.818,12.945c7.27,3.022,24.79,1.137,24.79,1.137
						s-0.578-13.134-1.128-17.801c-4.219-0.772-10.406,2.587-14.694,2.459C422.162,215.598,419.554,215.743,416.913,216.944z"/>
					<path style="fill:#FF8775;" d="M406.029,169.604c-2.428,7.995-4.056,16.755-4.687,25.086
						c-0.397,5.246-1.342,12.144,0.906,16.901c2.802,5.93,9.539,6.381,16.046,7.205c6.506,0.824,12.925,0.827,18.307-2.921
						c5.382-3.748,9.542-9.054,12.673-14.816c4.255-7.833,6.737-16.899,5.398-25.712c-1.339-8.813-6.96-17.226-15.263-20.469
						c-3.197-1.249-6.652-1.713-10.082-1.831c-5.374-0.186-11.023,0.609-15.402,3.953
						C409.315,160.52,407.712,164.063,406.029,169.604z"/>
					<path style="fill:#FF8775;" d="M403.455,184.088c-0.926,4.421-7.548,7.009-8.063,10.488c-0.515,3.48,3.966,4.098,5.823,6.076
						c0.961-3.786,1.43-7.777,1.907-11.654"/>
					<g>
						<path style="fill:#41007C;" d="M400.675,205.643c0.786-0.304,1.613-0.833,2.408-1.336c0.813-0.524,1.599-1.006,2.314-1.62
							c1.434-1.209,2.633-2.735,3.469-4.464c-0.642,1.81-1.681,3.501-3.035,4.924c-0.671,0.717-1.457,1.343-2.213,1.918
							c-0.777,0.587-1.52,1.185-2.486,1.668L400.675,205.643z"/>
					</g>
					<path style="fill:#41007C;" d="M406.227,185.947c-0.114,1.309,0.572,2.438,1.531,2.522c0.959,0.083,1.829-0.911,1.942-2.22
						c0.114-1.309-0.572-2.438-1.531-2.522C407.21,183.643,406.34,184.637,406.227,185.947z"/>
					<polygon style="fill:#41007C;" points="416.797,218.476 425.993,218.989 416.691,221.896 					"/>
					<g>
						<path style="fill:#41007C;" d="M414.673,185.064c-0.584-0.877-1.241-1.674-2.006-2.34c-0.75-0.676-1.569-1.251-2.429-1.72
							c-0.872-0.473-1.843-0.635-2.682-1.086c-0.864-0.441-1.739-0.851-2.753-1.486l0.008-0.216c1.09-0.561,2.303-0.577,3.433-0.348
							c1.155,0.219,2.085,1,2.959,1.7c0.886,0.704,1.659,1.533,2.283,2.451c0.608,0.927,1.105,1.915,1.384,2.957L414.673,185.064z"
							/>
					</g>
					<path style="fill:#41007C;" d="M439.756,213.225c12.864-6.206,22.961-22.32,23.626-36.587c0.227-4.87-0.468-9.84-2.516-14.264
						c-2.048-4.424-5.519-8.268-9.95-10.3c-5.75-2.638-12.393-2.047-18.638-3.057c-5.929-0.959-11.637-3.396-17.642-3.473
						c-3.154-0.04-6.293,0.58-9.281,1.59c-2.87,0.97-5.71,2.373-7.625,4.721c-3.023,3.706-2.66,8.539-0.898,12.986
						c0.133-2.015,1.523-3.988,3.405-4.722c-1.158,2.362-1.32,5.194-0.438,7.672c0.882,2.479,2.782,4.383,5.172,5.481
						c0.577-2.182,1.121-3.611,1.659-5.537c0.834,2.658,2.673,4.12,5.04,5.587c2.367,1.467,4.871,1.814,7.646,2.053
						c-0.771-1.105-1.547-2.22-2.066-3.464c-0.519-1.243-0.878-2.514-0.551-3.82c2.815,5.058,8.895,8.372,14.677,8.086
						c-1.44,3.557-1.739,7.565-0.843,11.296c0.895,3.731,2.981,7.167,5.878,9.682C437.565,201.966,437.638,208.752,439.756,213.225z
						"/>
					<g>
						<path style="fill:#FF8775;" d="M443.946,192.842c-0.527,3.056-2.419,5.849-5.061,7.472c-0.827,0.508-1.748,0.911-2.717,0.953
							c-2.186,0.093-4.107-1.751-4.712-3.855c-0.605-2.103-0.153-4.369,0.569-6.435c0.933-2.671,2.656-5.452,5.428-6.017
							C441.922,184.051,444.599,189.058,443.946,192.842z"/>
						<path style="fill:#FF8775;" d="M433.679,198.529c0.962-0.262,1.848-0.8,2.525-1.533c0.136-0.147,0.268-0.311,0.306-0.508
							c0.073-0.376-0.211-0.719-0.475-0.997c-0.533-0.562-1.066-1.124-1.6-1.686c-0.106-0.112-0.217-0.232-0.254-0.382
							c-0.041-0.165,0.013-0.337,0.066-0.499c0.682-2.058,1.483-4.275,3.308-5.447c0.493-0.317,1.06-0.545,1.646-0.539
							c0.869,0.009,1.669,0.537,2.206,1.22c0.537,0.683,0.853,1.511,1.145,2.329c0,0,0.331,4.459-2.834,7.046
							C436.553,200.123,433.679,198.529,433.679,198.529z"/>
						<g>
							<path style="fill:#41007C;" d="M442.551,190.489c-0.39-0.808-0.759-1.641-1.359-2.258c-0.57-0.619-1.375-1.037-2.135-0.951
								c-0.763,0.093-1.497,0.582-2.065,1.178c-0.579,0.597-1.03,1.329-1.388,2.115c-0.377,0.779-0.666,1.614-0.96,2.455
								c-0.083,0.229-0.091,0.297-0.068,0.331c0.03,0.075,0.23,0.276,0.37,0.435l0.895,1.004c0.277,0.351,0.632,0.617,0.87,1.148
								c0.118,0.257,0.1,0.642-0.067,0.88c-0.157,0.241-0.332,0.382-0.506,0.539c-0.717,0.595-1.566,1.021-2.459,1.164
								c0.836-0.331,1.593-0.817,2.165-1.469c0.141-0.159,0.298-0.329,0.368-0.477c0.069-0.149,0.055-0.263-0.02-0.41
								c-0.152-0.286-0.529-0.592-0.84-0.911l-0.955-0.947c-0.156-0.175-0.309-0.266-0.511-0.576
								c-0.097-0.156-0.138-0.397-0.114-0.56c0.018-0.171,0.063-0.301,0.095-0.407c0.274-0.857,0.565-1.723,0.956-2.565
								c0.399-0.834,0.9-1.654,1.593-2.326c0.692-0.646,1.55-1.225,2.598-1.27c1.062-0.035,1.954,0.605,2.503,1.354
								C442.06,188.742,442.342,189.617,442.551,190.489z"/>
						</g>
					</g>
				</g>
				<path style="fill:#C2C6F5;" d="M471.686,337.481c0-1.465,6.609-106.005-35.091-111.73c-50.771-6.97-53.087,38.076-56.016,51.622
					s-5.997,24.723-5.997,24.723s-8.33-12.056-15.604-11.176c-11.32,1.369-15.011,7.322-15.011,7.322s18.672,26.36,24.896,31.852
					s15.743-0.366,15.743-0.366v9.683c0,0,10.291,6.946,42.318,6.56C458.952,345.584,471.686,337.481,471.686,337.481z"/>
				<g>
					<path style="fill:#41007C;" d="M382.399,330.889c2.238-1.021,4.251-2.471,5.87-4.28c1.646-1.784,2.951-3.854,4.043-6.025
						c2.198-4.377,4.314-8.797,6.106-13.354c0.946-2.257,1.808-4.549,2.648-6.848c0.817-2.308,1.575-4.636,2.316-6.971
						c0.743-2.335,1.422-4.691,2.04-7.063c0.675-2.36,1.209-4.755,1.799-7.143c-0.696,4.868-1.717,9.695-3.037,14.443
						c-1.309,4.751-2.936,9.413-4.769,13.99c-1.892,4.552-3.998,9.019-6.384,13.33c-1.203,2.164-2.616,4.25-4.392,6.001
						C386.856,328.701,384.728,330.088,382.399,330.889z"/>
				</g>
				<g>
					<path style="fill:#41007C;" d="M374.884,300.146c-0.277,2.59-0.869,5.092-1.538,7.573c-0.701,2.472-1.481,4.923-2.58,7.285
						c0.274-2.591,0.867-5.093,1.538-7.573C373.007,304.959,373.787,302.509,374.884,300.146z"/>
				</g>
				<g>
					<path style="fill:#C2C6F5;" d="M397.439,356.145c-1.501,0.117-3.001,0.166-4.503,0.252l-4.507,0.114
						c-3.007,0.054-6.02-0.031-9.029-0.246c-3.006-0.242-6.013-0.618-8.962-1.288l-2.2-0.544l-2.175-0.631l-2.13-0.765
						c-0.699-0.282-1.393-0.577-2.081-0.879c0.729,0.193,1.452,0.394,2.169,0.607l2.183,0.527l2.189,0.477l2.203,0.392
						c2.945,0.47,5.908,0.811,8.886,1.027c2.976,0.241,5.966,0.353,8.96,0.496l4.496,0.187
						C394.438,355.962,395.939,356.019,397.439,356.145z"/>
				</g>
				<g>
					<polygon style="fill:#C2C6F5;" points="365.889,472.587 365.859,457.502 365.943,442.419 366.285,412.257 366.877,382.098 
						367.262,367.019 367.761,351.943 367.792,367.028 367.709,382.11 367.365,412.273 366.771,442.432 366.386,457.51 					"/>
				</g>
				<g>
					<path style="fill:#41007C;" d="M362.806,445.475v27.183h-63.98c-3.661,0-6.23-3.608-5.033-7.068l0,0
						c0.695-2.007,2.175-3.647,4.101-4.542l34.988-16.267L362.806,445.475z"/>
					
						<line style="fill:none;stroke:#C2C6F5;stroke-width:1.0814;stroke-miterlimit:10;" x1="293.97" y1="469.506" x2="362.806" y2="469.506"/>
					<path style="fill:none;stroke:#C2C6F5;stroke-width:1.0814;stroke-miterlimit:10;" d="M323.805,456.116
						c-2.731-2.977-6.689-4.793-10.726-4.92"/>
					<path style="fill:none;stroke:#C2C6F5;stroke-width:1.0814;stroke-miterlimit:10;" d="M319.729,458.317
						c-2.649-2.574-5.995-4.422-9.584-5.294"/>
					<path style="fill:none;stroke:#C2C6F5;stroke-width:1.0814;stroke-miterlimit:10;" d="M314.674,459.095
						c-2.883-2.079-6.161-3.61-9.606-4.485"/>
				</g>
				<g>
					<path style="fill:#C2C6F5;" d="M337.105,336.537c1.482-2.186,3.401-4.092,5.553-5.661c2.146-1.586,4.516-2.85,6.97-3.878
						c4.886-2.008,10.001-3.549,15.243-4.204c-5.058,1.492-10,3.187-14.829,5.203C345.245,329.974,340.738,332.7,337.105,336.537z"
						/>
				</g>
				<g style="opacity:0.29;">
					<g>
						<path style="fill:#C2C6F5;" d="M456.689,167.453c-2.46-1.803-4.946-3.564-7.526-5.176c-2.562-1.637-5.194-3.161-7.908-4.515
							c-5.42-2.705-11.167-4.805-17.134-5.747c-2.97-0.483-6.009-0.804-8.975-0.503c-1.478,0.156-2.943,0.474-4.288,1.066
							c-1.348,0.584-2.56,1.434-3.578,2.512c-2,2.177-3.574,4.892-4.087,7.838c-0.553,2.915,0.201,6.178,2.386,8.346
							c-2.355-2.008-3.289-5.36-2.871-8.42c0.443-3.098,1.976-5.931,4.007-8.286c1.034-1.177,2.345-2.152,3.794-2.781
							c1.442-0.651,2.992-1.001,4.538-1.18c3.109-0.342,6.198-0.043,9.236,0.422c6.072,1.044,11.92,3.171,17.325,6.052
							C447.011,159.976,452.035,163.511,456.689,167.453z"/>
					</g>
					<g>
						<path style="fill:#C2C6F5;" d="M454.089,173.55c-2.63-0.36-5.181-1.208-7.624-2.262c-2.434-1.085-4.756-2.402-7.023-3.781
							c-4.532-2.738-8.849-5.894-13.655-7.916c-2.381-1.005-4.961-1.624-7.495-1.316c-1.251,0.154-2.477,0.56-3.437,1.322
							c-0.957,0.765-1.644,1.865-2.113,3.045c-0.931,2.368-0.988,5.139,0.075,7.493c1.029,2.353,3.252,4.229,5.873,4.694
							c-2.667-0.24-5.08-2.068-6.316-4.483c-1.219-2.453-1.263-5.394-0.353-7.973c0.453-1.287,1.173-2.546,2.292-3.45
							c1.116-0.905,2.498-1.366,3.861-1.551c2.753-0.365,5.509,0.276,7.993,1.295c2.492,1.051,4.777,2.44,7.031,3.845
							c2.245,1.423,4.452,2.887,6.652,4.347c2.206,1.451,4.458,2.825,6.821,3.988C449.02,172.038,451.503,172.968,454.089,173.55z"
							/>
					</g>
					<g>
						<path style="fill:#C2C6F5;" d="M456.777,179.051c-1.078,0.23-2.186,0.296-3.291,0.336c-1.105,0.006-2.207-0.048-3.303-0.105
							c-2.19-0.118-4.355-0.322-6.487-0.159c-2.121,0.139-4.23,0.636-5.992,1.791c-0.882,0.573-1.67,1.301-2.286,2.166
							c-0.642,0.851-1.061,1.862-1.246,2.948c-0.043-1.106,0.293-2.219,0.833-3.212c0.572-0.979,1.354-1.829,2.254-2.529
							c1.822-1.422,4.146-1.997,6.368-2.16c2.247-0.145,4.463,0.096,6.628,0.394c1.084,0.15,2.165,0.287,3.25,0.381
							C454.589,179.023,455.676,179.057,456.777,179.051z"/>
					</g>
					<g>
						<path style="fill:#C2C6F5;" d="M456.14,184.043c-0.891,1.104-1.83,2.163-2.726,3.258c-0.92,1.073-1.836,2.147-2.715,3.248
							c-1.77,2.192-3.473,4.426-4.966,6.792c-1.491,2.363-2.765,4.859-3.717,7.484c-0.477,1.312-0.852,2.663-1.112,4.039
							c-0.294,1.373-0.433,2.775-0.491,4.192c-0.318-2.826,0.058-5.724,0.872-8.469c0.804-2.758,2.096-5.351,3.604-7.78
							c1.549-2.406,3.306-4.665,5.23-6.757C452.026,187.943,454.045,185.954,456.14,184.043z"/>
					</g>
				</g>
			</g>
			<g>
				<g>
					<path style="fill:#41007C;" d="M359.383,362.119h106.905c5.966,0,10.803-4.837,10.803-10.803l0,0H348.58l0,0
						C348.58,357.282,353.417,362.119,359.383,362.119z"/>
					<path style="fill:#41007C;" d="M383.622,258.652v92.673h93.47v-92.673c0-10.287-8.339-18.625-18.626-18.625h-56.219
						C391.961,240.027,383.622,248.366,383.622,258.652z M400.707,263.013c0-5.966,4.837-10.803,10.803-10.803h37.694
						c5.966,0,10.803,4.837,10.803,10.803H400.707z"/>
				</g>
				<polygon style="fill:#41007C;" points="464.02,472.709 470.626,472.709 438.184,364.286 431.577,364.286 				"/>
				<polygon style="fill:#C2C6F5;" points="465.879,472.709 472.485,472.709 440.042,364.286 433.436,364.286 				"/>
				<polygon style="fill:#41007C;" points="426.769,472.709 433.376,472.709 422.561,364.286 415.955,364.286 				"/>
				<polygon style="fill:#C2C6F5;" points="428.628,472.709 435.234,472.709 424.42,364.286 417.814,364.286 				"/>
				<polygon style="fill:#41007C;" points="356.767,472.709 350.16,472.709 382.603,364.286 389.21,364.286 				"/>
				<polygon style="fill:#C2C6F5;" points="358.719,472.709 352.113,472.709 384.556,364.286 391.162,364.286 				"/>
				<polygon style="fill:#41007C;" points="394.017,472.709 387.411,472.709 398.225,364.286 404.832,364.286 				"/>
				<polygon style="fill:#C2C6F5;" points="395.97,472.709 389.364,472.709 400.178,364.286 406.784,364.286 				"/>
				<path style="fill:#41007C;" d="M444.969,355.308h-63.621c-3.054,0-5.53,2.476-5.53,5.53l0,0c0,3.054,2.476,5.53,5.53,5.53
					h63.621c3.054,0,5.53-2.476,5.53-5.53l0,0C450.499,357.784,448.023,355.308,444.969,355.308z"/>
				<path style="fill:#905DF3;" d="M361.579,362.119h106.906c5.966,0,10.803-4.837,10.803-10.803l0,0H350.776l0,0
					C350.776,357.282,355.612,362.119,361.579,362.119z"/>
				<path style="fill:#905DF3;" d="M385.817,258.652v92.673h93.47v-92.673c0-10.287-8.339-18.625-18.626-18.625h-56.219
					C394.156,240.027,385.817,248.366,385.817,258.652z M402.902,263.013c0-5.966,4.837-10.803,10.803-10.803h37.694
					c5.966,0,10.803,4.837,10.803,10.803H402.902z"/>
				<g>
					<path style="fill:#41007C;" d="M385.817,351.325c3.895-0.122,7.789-0.174,11.684-0.263l11.684-0.151
						c7.789-0.089,15.578-0.081,23.368-0.126l23.367,0.124l11.684,0.151c3.895,0.09,7.789,0.142,11.684,0.265
						c-3.895,0.123-7.789,0.175-11.684,0.265l-11.684,0.151l-23.367,0.124c-7.789-0.045-15.578-0.037-23.368-0.126l-11.684-0.151
						C393.607,351.499,389.712,351.447,385.817,351.325z"/>
				</g>
			</g>
		</g>
		
			<line style="fill:none;stroke:#41007C;stroke-width:2;stroke-miterlimit:10;" x1="487.234" y1="473.819" x2="21.696" y2="473.819"/>
	</g>
</g>
</svg>
